<?xml version="1.0" standalone="no"?>
<!DOCTYPE svg PUBLIC "-//W3C//DTD SVG 1.1//EN" "http://www.w3.org/Graphics/SVG/1.1/DTD/svg11.dtd" >
<!--
2013-9-30: Created.
-->
<svg>
<metadata>
Created by iconfont
</metadata>
<defs>

<font id="iconfont" horiz-adv-x="1024" >
  <font-face
    font-family="iconfont"
    font-weight="500"
    font-stretch="normal"
    units-per-em="1024"
    ascent="896"
    descent="-128"
  />
    <missing-glyph />
    
    <glyph glyph-name="title" unicode="&#58927;" d="M116.181404 762.2778539999999L116.181404 454.866575 201.417293 454.866575 201.417293 762.2778539999999 317.598697 762.2778539999999 317.598697 832 0 832 0 762.2778539999999 116.181404 762.2778539999999ZM412.356282 770.200826L412.356282 832 335.263948 832 335.263948 770.200826 412.356282 770.200826ZM335.263948 727.944979L335.263948 454.866575 412.356282 454.866575 412.356282 727.944979 335.263948 727.944979ZM550.003263 727.944979L550.003263 809.815681 472.91093 809.815681 472.91093 727.944979 426.221206 727.944979 426.221206 677.766163 472.91093 677.766163 472.91093 516.66575C472.91093 502.932531 475.263489 491.840483 479.968678 483.389271 484.673868 474.93806 491.098164 468.423682 499.241762 463.845942 507.385359 459.268203 516.795596 456.187078 527.472757 454.602476 538.149917 453.017874 549.4603 452.225585 561.404242 452.225585 569.004932 452.225585 576.786475 452.401649 584.749103 452.753782 592.711731 453.105916 599.950376 453.810173 606.465253 454.866575L606.465253 512.968363C602.845877 512.264095 599.045588 511.735903 595.064275 511.383769 591.082961 511.031635 586.92074 510.855571 582.577488 510.855571 569.547733 510.855571 560.86136 512.968342 556.518108 517.193948 552.174856 521.419553 550.003263 529.870638 550.003263 542.547455L550.003263 677.766163 606.465253 677.766163 606.465253 727.944979 550.003263 727.944979ZM624.673409 832L624.673409 454.866575 701.765741 454.866575 701.765741 832 624.673409 832ZM930.620557 620.720771L805.209786 620.720771C805.571725 626.002778 806.748006 631.988963 808.738662 638.6795050000001 810.729318 645.370047 814.167674 651.708361 819.05383 657.694636 823.939994 663.68091 830.454771 668.698742 838.598368 672.74828 846.741965 676.79782 856.966547 678.822559 869.272429 678.822559 888.09319 678.822559 902.118061 673.8927590000001 911.347469 664.033012 920.576883 654.173266 927.001178 639.735996 930.620557 620.720771L930.620557 620.720771ZM805.209786 573.182943L1007.71289 573.182943C1009.16064 594.310972 1007.350976 614.558363 1002.283853 633.925722 997.216723 653.293082 988.982765 670.54738 977.581728 685.689133 966.180691 700.830887 951.612922 712.89129 933.877978 721.870701 916.143034 730.850114 895.33193 735.339752 871.444045 735.339752 850.089722 735.339752 830.635866 731.6424030000001 813.081888 724.247593 795.527917 716.852783 780.417248 706.7290869999999 767.749427 693.876204 755.081613 681.02332 745.30944 665.793761 738.432627 648.18707 731.555808 630.58038 728.117453 611.565439 728.117453 591.141678 728.117453 570.013649 731.465325 550.64658 738.161171 533.03989 744.857018 515.4331990000001 754.357741 500.291673 766.663622 487.614856 778.969498 474.938038 793.98969 465.166472 811.724634 458.299862 829.459578 451.433253 849.36585 448 871.444045 448 903.29456 448 930.439475 455.042571 952.87961 469.127923 975.319744 483.213276 991.968627 506.629823 1002.826752 539.378267L934.963782 539.378267C932.430221 530.927055 925.55351 522.916131 914.33344 515.3452540000001 903.113376 507.774378 889.721882 503.988996 874.158566 503.988996 852.442304 503.988996 835.793421 509.446988 824.211418 520.3631359999999 812.629414 531.279284 806.295597 548.885711 805.209786 573.182943ZM0 320L1024 320 1024 256 0 256 0 320ZM0 128L1024 128 1024 64 0 64 0 128ZM0-64L768-64 768-128 0-128 0-64Z"  horiz-adv-x="1024" />

    
    <glyph glyph-name="star" unicode="&#58950;" d="M519.168 825.856L615.7824 630.1952 831.6928 598.8096 675.4304 446.4896 712.3456 231.42399999999998 519.168 332.928 326.0928 231.42399999999998 362.9056 446.4896 206.6688 598.8096 422.6304 630.1952ZM244.1216 315.9552L298.8544 205.0304 421.2736 187.23839999999996 332.6976 100.88959999999997 353.6128-20.991999999999962 244.1216 36.55679999999995 134.6304-20.991999999999962 155.5456 100.88959999999997 66.9696 187.23839999999996 189.3888 205.0304ZM779.8784 315.9552L834.6368 205.0304 957.0304 187.23839999999996 868.4544 100.88959999999997 889.3184-20.991999999999962 779.8784 36.55679999999995 670.4128-20.991999999999962 691.3024 100.88959999999997 602.7264 187.23839999999996 725.12 205.0304Z"  horiz-adv-x="1024" />

    
    <glyph glyph-name="upload-image" unicode="&#59032;" d="M640 32L192 32c-53 0-96 43.1-96 96L96 767.9c0 53 43.1 96 96 96L832 863.9c53 0 96-43.1 96-96l0-448c0-17.7-14.3-32-32-32s-32 14.3-32 32l0 448c0 17.7-14.4 32-32 32L192 799.9c-17.7 0-32-14.4-32-32L160 128c0-17.7 14.4-32 32-32l448 0c17.7 0 32-14.3 32-32S657.7 32 640 32zM128 224c-8.2 0-16.4 3.1-22.6 9.4-12.5 12.5-12.5 32.8 0 45.3L264.8 438c29.2 29.2 73.7 36.5 110.7 18l173.6-86.8c12.3-6.2 27.1-3.8 36.8 6l287.4 287.4c12.5 12.5 32.8 12.5 45.3 0 12.5-12.5 12.5-32.8 0-45.3L631.2 329.9c-29.2-29.2-73.7-36.5-110.7-18l-173.6 86.8c-12.3 6.2-27.1 3.8-36.8-6L150.6 233.39999999999998C144.4 227.10000000000002 136.2 224 128 224zM384 544c-52.9 0-96 43.1-96 96s43.1 96 96 96 96-43.1 96-96S436.9 544 384 544zM384 672c-17.6 0-32-14.4-32-32s14.4-32 32-32 32 14.4 32 32S401.6 672 384 672zM768 32c-17.7 0-32 14.3-32 32L736 256c0 17.7 14.3 32 32 32s32-14.3 32-32l0-192C800 46.299999999999955 785.7 32 768 32zM896 160c-7.9 0-15.7 2.9-21.9 8.7L768 268.29999999999995l-106.1-99.7c-12.9-12.1-33.1-11.5-45.2 1.4-12.1 12.9-11.5 33.1 1.4 45.2l112.2 105.4c9.2 11.3 23 17.9 37.7 17.9s28.5-6.6 37.7-17.9l112.2-105.4c12.9-12.1 13.5-32.4 1.4-45.2C913 163.39999999999998 904.5 160 896 160z"  horiz-adv-x="1024" />

    
    <glyph glyph-name="globe" unicode="&#59321;" d="M511.163 833.578c-242.734 0-439.51-196.775-439.51-439.51s196.776-439.51 439.51-439.51 439.51 196.776 439.51 439.51-196.776 439.51-439.51 439.51zM548.7 802.441s27.53 15.968 37.11 6.388c9.58-9.58 43.113 1.596 129.338-49.5 0 0-18.99-20.252-23.143-19.037 2.424-4.403 9.876-17.825 15.159-26.122 6.387-10.03 7.984-10.728 7.984-10.728l-6.388-9.58 6.388-1.596c-6.388 1.596-9.58-17.564-18.825-20.758-9.244-3.194 2.857-20.758-0.336-23.951-3.193-3.194 1.597-31.936 0-48.865-1.596-16.93-7.983-2.231-15.967 0-7.984 2.23-20.758 7.35-21.85 12.14-1.094 4.79-3.698 19.16-0.505 27.144 3.193 7.984-9.58 15.968-15.968 21.823-6.388 5.856-31.935-1.065-36.726 0-4.79 1.066-7.983 14.903-7.983 27.677s22.355-1.597 34.936 0c12.582 1.596 14.564 33.431 14.564 33.431l-0.723 27.062c-5.162 2.064-6.005 4.74 2.32 8.168 0 0-27.146 6.387-33.532-7.984-6.388-14.372-9.58-12.976-11.178-27.246-1.596-14.27-26.613-1.697-32.467 0-5.855 1.698-21.823 20.86-21.823 20.86 4.79 11.177 7.983 19.16 7.983 19.16l-8.368 19.16V802.441zM296.797 653.942c2.708 3.614 20.757 35.13 43.113 25.548 22.355-9.58 36.725 11.177 36.725 11.177s32.823 33.532 34.774 28.742l1.951-4.79c-1.951 4.79 27.146 12.774 30.338-3.194 3.194-15.967 22.356-24.001 22.356-24.001s-11.178-19.112-7.984-33.482c3.193-14.371 14.371-17.564 7.984-30.339-6.388-12.774-19.162-17.564-22.356-23.951-3.193-6.388-29.451 20.757-32.29 30.339-2.839 9.58-16.868 19.16-29.015 15.967-12.146-3.194-44.082-11.177-50.468-7.984-6.387 3.194-42.61 5.986-35.128 15.968zM724.73 184.49300000000005c-12.774-33.532-43.113-91.016-59.08-106.983-15.968-15.968-35.13-46.307-49.5-57.484-14.371-11.177-14.371-31.935-31.935-30.339-17.564 1.597-38.323 51.097-33.532 63.871 4.79 12.774-87.822 35.13-87.822 35.13s-39.92 4.79-47.903 81.434c-1.422 13.64-2.334 23.32-2.879 30.043-11.998 5.302-59.06 24.783-88.137 17.86-33.532-7.984-41.516 10.653-70.258 14.907l-49.5 45.77s-81.434 94.21-71.854 110.177c9.58 15.968 9.58 59.08 11.177 68.66 1.597 9.581-12.744 70.26-11.961 78.243 0.784 7.984-11.99 38.323-11.99 38.323s30.339 63.87 35.129 63.87 22.355-54.29 39.92-55.886c17.563-1.597 65.466 1.596 72.652 9.58 7.186 7.984 13.572 17.564 21.556 17.564 7.984 0 7.984 4.79 22.355-1.597 14.371-6.387 30.339-15.967 36.725-25.547 6.388-9.58-4.79-28.742 28.742-28.742s33.532 7.984 38.323-14.371c4.79-22.356 10.467-71.855-3.548-75.049-14.016-3.193-55.532-51.804-52.338-67.418 3.194-15.614 3.194-39.565-3.194-53.936-6.387-14.37-11.177-19.16-35.129-17.564-23.951 1.597-44.2 14.372-50.842-4.79-6.642-19.161-19.348-62.327 2.94-57.969 0 0 35.128 10.692 47.902 0 12.774-10.692 94.21-45.82 94.21-45.82s73.45 79.838 188.418 28.741l19.162-12.774 31.935 6.943s41.515 12.219 55.887 9.025l14.371-3.194v6.388c-0.002-0.002 12.772-33.534-0.002-67.066z m186.822 182.031s-9.58 14.371-9.58 29.487-11.178 13.626-11.178 32.786c0 19.162-14.371 12.774-23.951 25.548s-14.372-4.79-22.355-6.387c-7.984-1.597-6.388-14.372-14.372-29.54-7.984-15.17-28.741-24.75-35.129-21.911-6.387 2.84-30.339 24.305-31.935 29.097-1.597 4.79-33.532 31.935-32.646 38.322 0.887 6.388-8.87 39.92-15.257 55.887-6.388 15.968 0 78.877 0 78.877-9.58 5.424 87.822 45.672 75.048 50.462-12.774 4.79-19.161 57.483-19.161 57.483l46.483-23.951c46.484-23.952 105.21-213.968 105.21-213.968v-54.29l-11.177-47.902z"  horiz-adv-x="1024" />

    
    <glyph glyph-name="upload-file" unicode="&#58899;" d="M532.352 800c-138.688 0-260.992-88-312.32-218.304C111.808 558.656 32 458.752 32 341.312c0-135.168 105.152-245.312 235.648-245.312a32 32 0 1 1 0 64C173.184 160 96 240.832 96 341.312c0 92.608 65.92 169.664 151.68 180.16a32 32 0 0 1 26.496 21.632C312.32 657.92 415.424 736 532.352 736c145.6 0 265.92-120.32 273.152-273.472a32 32 0 0 1 23.68-29.44c57.472-15.296 98.816-70.336 98.816-134.4 0-76.928-58.944-138.688-130.88-138.688a32 32 0 1 1 0-64c107.968 0 194.88 91.072 194.88 202.688 0 84.672-50.432 159.104-124.288 188.928C848.768 663.6800000000001 705.6 800 532.352 800z m11.648-557.248V-32a32 32 0 1 0-64 0v274.752l-73.344-73.408a32 32 0 0 0-45.312 45.312l128 128a32 32 0 0 0 45.312 0l128-128a32 32 0 0 0-45.312-45.312L544 242.75199999999995z"  horiz-adv-x="1024" />

    
    <glyph glyph-name="button" unicode="&#59387;" d="M329.4 435.5c10 2.3 16.3 12.2 14.1 22.3-4.7 21.1-5.5 42.7-2.1 64.3 14.6 94.2 103.1 159.1 197.4 144.5 22.2-3.4 43.2-11 62.3-22.4 8.9-5.3 20.3-2.4 25.5 6.4 5.3 8.8 2.4 20.3-6.4 25.6-23.3 13.9-48.7 23.1-75.7 27.3-114.5 17.7-222.2-61-239.9-175.6-4-26.2-3.2-52.5 2.6-78.2 1.9-8.7 9.6-14.6 18.2-14.6 1.3-0.1 2.7 0.1 4 0.4zM847.9 296.6c0 26.6-10.5 50.1-28 66.4 17.6 40.7 27.5 85.5 27.5 132.7 0 184.8-150.3 335.1-335.1 335.1S177.2 680.5 177.2 495.7c0-110.7 54.1-208.8 137-269.9 0.6-3.3 1.3-6.6 2.3-9.9 3.2-10.8 7.5-20.4 13-28.8 30.1-45.8 64.1-97.7 97.9-148.3 34.2-51.2 83.8-83.1 147.2-94.7 8-1.4 15.3-2.4 22.3-3.3 3.4-0.5 6.8-0.9 10.2-1.4 2.7-0.4 5.3-0.6 8-0.6h37.8c3 0 6 0.2 8.9 0.7 3.3 0.5 6.7 1.1 10 1.6 5.7 0.9 11.5 1.8 17.2 2.8 80.2 13.8 140.7 74.1 154.3 153.7 2.8 15.9 4.2 32 4.3 47.7 0.2 59.7 0.2 67.2 0.2 91.4 0.1 12.3 0.1 29.1 0.1 59.9z m-614.8 199c0 154.2 125 279.2 279.3 279.2 154.2 0 279.2-125 279.2-279.2 0-39.1-8.2-76.3-22.7-110.1-2.6 0.2-5.2 0.4-7.9 0.4-8.1 0-16-1.1-23.5-3.2-8.7 8.2-19.1 14.7-30.8 18.7-1.9 0.6-3.9 1.2-5.8 1.7 9.2 18.6 15.9 38.8 19.2 60.4 7.2 46.4-1 92.7-23.7 133.7-5 9-16.3 12.3-25.3 7.3-9-5-12.3-16.3-7.3-25.3 18.7-33.8 25.4-71.8 19.5-110-3.7-24.1-12.4-46.2-24.7-65.5-1.1-0.3-2.3-0.4-3.3-0.7-7.7 7-16.9 12.8-27.4 17.3-8 4.2-17 6.5-26.2 6.5h-1.9v65c0 45.4-30.1 80.6-75 87.7-4.2 0.7-8.4 1-12.5 1-43.9 0-82.4-35.3-85.9-78.6-0.4-5.6-0.4-10.2-0.4-14V346c-17.4 10-33.1 22.9-46.2 38.6-6.6 7.9-18.3 8.9-26.2 2.3-7.9-6.6-8.9-18.3-2.3-26.2 9.1-10.9 19.3-20.6 30.2-29.3-22.6-5.8-42.5-20.2-54.8-40.5-0.5-0.8-0.8-1.6-1.3-2.4-56.8 51.1-92.3 125-92.3 207.1z m558.8-350.2c0-12.8-1.3-25.9-3.5-38.6-9.6-56.2-52.1-98.3-108.5-108-8.9-1.5-17.8-2.8-26.8-4.3h-37.8c-10.1 1.5-20.4 2.6-30.5 4.4-46.5 8.5-84.3 31-110.8 70.7-32.8 49.2-65.3 98.5-97.7 147.9-2.7 4.2-4.7 9-6.1 13.8-6.1 20.9 6.2 42.4 26.8 46.4 3 0.6 5.9 0.9 8.6 0.9 12.5 0 23.1-5.6 31.3-16.2 13.6-17.6 26.4-35.7 39.6-53.6l4.2-5.7c0.3 0.2 0.7 0.3 1.1 0.4v5 279.2c0 3.2 0 6.3 0.2 9.5 1.2 14.7 15.6 27.2 30.2 27.2 1.3 0 2.6-0.1 3.9-0.3 17.4-2.7 27.8-14.8 27.8-32.5 0-49.7 0-132.9 0.1-182.6 0-2.6 0.2-5.3 0.9-7.7 1.3-4 4.3-6.2 8.6-6.5h0.9c4.1 0 7.2 2.1 8.8 5.7 1 2.3 1.1 5.1 1.1 7.7v22.5 6.6c0 11.2 3.8 21 13.3 27.6 3.5 2.4 7.7 3.9 11.6 5.8h12.6c0.5-0.3 0.8-0.7 1.3-0.9 16.3-5.6 23.9-16.2 23.9-33.4v-22.2 16.4-22.2c0-1.6-0.1-3.2 0.1-4.7 0.7-5.4 4.8-8.9 10-8.9h1c5.5 0.5 8.7 4.2 9 11.1v0.2 1.2 10.6c0.2 7.3 2 14.2 6.7 20.2 6.2 7.8 15.2 12.1 24.6 12.1 3.4 0 6.9-0.6 10.2-1.7 12.9-4.4 21.2-17 21.2-31.9v-28c0-1.9 0-3.9 0.2-5.8 0.6-5.1 3.9-7.7 8.6-8.6 0.5-0.1 1-0.1 1.5-0.1 3.7 0 7.7 2.6 8.9 6.3 0.8 2.4 1 5.1 1 7.7V294v-11.3s0.1 3.4 0.1 13.2c0 5.4 1 11.3 3.2 16.3 4.7 11.1 16 17.8 27.7 17.8 2.2 0 4.3-0.2 6.4-0.7 15.1-3.3 24.6-16.1 24.6-32.7 0-90.3 0.1-60.8-0.1-151.2z"  horiz-adv-x="1024" />

    
    <glyph glyph-name="date" unicode="&#58880;" d="M739.328 725.504v56.832h-56.832v-56.832H341.504v56.832h-56.832v-56.832H56.832v-739.328h910.336V725.504h-227.84z m171.008-688.64H113.664V440.832h796.672v-403.968z m0 460.8H113.664v176.64H284.16v-62.464h56.832v62.464h341.504v-62.464h56.832v62.464h170.496v-176.64zM682.496 213.50400000000002H796.16V99.84000000000003H682.496zM455.168 384h113.664v-113.664H455.168z m227.328 0H796.16v-113.664H682.496zM227.328 213.50400000000002h113.664V99.84000000000003H227.328z m227.84 0h113.664V99.84000000000003H455.168zM227.328 384h113.664v-113.664H227.328z"  horiz-adv-x="1024" />

    
    <glyph glyph-name="location" unicode="&#58971;" d="M494.5 124.5l16.9-18.7 17.1 18.5c2.4 2.6 60.4 65.5 119.4 145.3C729 379.4 770.2 464.7 770.2 523.1c0 68.3-26.6 132.6-74.9 180.9-48.3 48.3-112.6 74.9-180.9 74.9s-132.7-26.6-181-74.9c-48.3-48.3-74.9-112.6-74.9-180.9 0-58.3 40.2-143.5 119.4-253.3 57.5-79.8 114.2-142.7 116.6-145.3zM304.4 523.1c0 115.7 94.1 209.8 209.8 209.8S724 638.8 724 523.1c0-25.5-11.5-60.3-34.1-103.2-19-36-45.5-77.3-79-122.6-38.7-52.4-77.7-98.1-99.3-122.7-21.1 24.5-59 70-96.6 122.1-32.7 45.4-58.7 86.7-77.3 122.8-22 43.1-33.3 78-33.3 103.6zM852.2 177.60000000000002c-35.6 15-85.9 27.4-145.4 36l-6.5-45.5c55.7-8 102-19.3 134.1-32.8 32.5-13.7 39.2-25.1 39.2-27.4 0-4.3-16.9-25.9-95.2-45.4-70.9-17.6-165.5-27.4-266.4-27.4-100.9 0-195.5 9.7-266.4 27.4-78.2 19.5-95.2 41.1-95.2 45.4 0 2.3 6.6 13.7 38.9 27.3 31.9 13.5 78 24.8 133.4 32.8l-6.6 45.5c-59.3-8.5-109.3-21-144.7-35.9-44.5-18.8-67-42.2-67-69.7 0-21.6 14-40.9 41.6-57.1 21.3-12.5 51.1-23.6 88.5-32.9 74.4-18.5 172.9-28.7 277.5-28.7s203.1 10.2 277.5 28.7c37.5 9.3 67.2 20.4 88.5 32.9 27.6 16.2 41.6 35.4 41.6 57.1 0 27.4-22.7 50.9-67.4 69.7zM511.4 436.5c48 0 87 39 87 87s-39 87-87 87-87-39-87-87 39.1-87 87-87z m0 128c22.6 0 41-18.4 41-41s-18.4-41-41-41-41 18.4-41 41 18.4 41 41 41z"  horiz-adv-x="1024" />

    
    <glyph glyph-name="time" unicode="&#59216;" d="M942.4 419.2c-16 209.6-185.6 379.2-395.2 395.2-265.6 20.8-486.4-200-465.6-465.6 16-209.6 185.6-379.2 395.2-395.2 265.6-20.8 486.4 200 465.6 465.6z m-64-73.6c-17.6-172.8-156.8-312-328-328-233.6-22.4-427.2 171.2-404.8 404.8 17.6 172.8 156.8 312 328 328 233.6 22.4 427.2-171.2 404.8-404.8zM544 412.8V654.4c0 14.4-8 27.2-20.8 32-22.4 6.4-43.2-9.6-43.2-30.4v-262.4c0-1.6 0-1.6 1.6-3.2 0-1.6 0-1.6 1.6-3.2 0-1.6 1.6-1.6 1.6-3.2s0-1.6 1.6-3.2 3.2-3.2 3.2-4.8L624 241.60000000000002c9.6-9.6 25.6-14.4 38.4-6.4 20.8 11.2 24 36.8 8 51.2L544 412.8z"  horiz-adv-x="1024" />

    
    <glyph glyph-name="checkbox" unicode="&#58933;" d="M756.341948 28.671989000000053H111.773992A111.064992 111.064992 0 0 0 0.788 139.65798199999995V784.225938A111.064992 111.064992 0 0 0 111.773992 895.21193H686.629953a39.384997 39.384997 0 0 0 0-78.768995H111.773992a32.294998 32.294998 0 0 1-32.216997-32.216997v-644.489956a32.294998 32.294998 0 0 1 32.216997-32.215998h644.489956a32.294998 32.294998 0 0 1 32.215998 32.216998V329.01896899999997a39.384997 39.384997 0 0 0 78.769995 0v-189.281987a111.064992 111.064992 0 0 0-110.907993-111.064993zM984.614933-128H293.72998a39.384997 39.384997 0 0 0 0 78.769995h651.499955v383.999973a39.384997 39.384997 0 0 0 78.769995 0v-423.384971A39.384997 39.384997 0 0 0 984.614933-128z m0 1023.99993a39.541997 39.541997 0 0 1-27.883998-11.499999L455.443969 383.21196499999996a39.384997 39.384997 0 0 1 55.767996-55.767996L1012.499931 828.729935A39.384997 39.384997 0 0 1 984.614933 895.99993zM262.773982 617.471949a39.384997 39.384997 0 0 1-27.883998-67.189995l222.759985-222.759985a39.462997 39.462997 0 0 1 55.767996-0.078 39.384997 39.384997 0 0 1 0 55.689996L290.57998 605.97195a38.911997 38.911997 0 0 1-27.805998 11.499999z"  horiz-adv-x="1024" />

    
    <glyph glyph-name="link" unicode="&#59160;" d="M611.2 528l-294.4-294.4c-6.4-6.4-9.6-16-9.6-22.4s3.2-16 9.6-22.4 16-9.6 22.4-9.6 16 3.2 22.4 9.6l294.4 294.4c6.4 6.4 9.6 16 9.6 22.4s-3.2 16-9.6 22.4c-12.8 12.8-32 12.8-44.8 0zM608 140.79999999999995l-99.2-99.2c-96-96-249.6-96-342.4-3.2-92.8 92.8-92.8 246.4 3.2 342.4L268.8 480c12.8 12.8 12.8 32 0 44.8s-32 12.8-44.8 0l-99.2-99.2C3.2 304 3.2 112 121.6-6.399999999999977 179.2-64 259.2-96 336-96c80 0 156.8 28.8 217.6 89.6l99.2 99.2c12.8 12.8 12.8 32 0 44.8s-32 16-44.8 3.2zM902.4 774.4c-57.6 57.6-131.2 86.4-214.4 86.4h-3.2c-83.2 0-160-35.2-217.6-92.8l-96-96c-12.8-12.8-12.8-32 0-44.8s32-12.8 44.8 0l96 96c48 48 108.8 73.6 172.8 73.6h3.2c64 0 121.6-25.6 166.4-70.4 92.8-92.8 92.8-246.4-3.2-345.6l-96-96c-12.8-12.8-12.8-32 0-44.8 6.4-6.4 16-9.6 22.4-9.6s16 3.2 22.4 9.6l96 96c121.6 124.8 124.8 320 6.4 438.4z"  horiz-adv-x="1024" />

    
    <glyph glyph-name="radio" unicode="&#58934;" d="M957.91 383.07000000000005c0-247.03-200.26-447.29-447.29-447.29S63.33 136.02999999999997 63.33 383.07000000000005 263.59 830.35 510.62 830.35 957.91 630.1 957.91 383.07000000000005zM510.62 740.9c-197.62 0-357.83-160.21-357.83-357.83S313 25.230000000000018 510.62 25.230000000000018s357.83 160.21 357.83 357.83S708.25 740.9 510.62 740.9zM510.62 383.07000000000005m-178.92 0a178.92 178.92 0 1 1 357.84 0 178.92 178.92 0 1 1-357.84 0Z"  horiz-adv-x="1024" />

    
    <glyph glyph-name="image" unicode="&#58952;" d="M132.256-25.600000000000023a64 64 0 0 0-64 64V695.456a64 64 0 0 0 64 64h759.488a64 64 0 0 0 64-64V38.39999999999998a64 64 0 0 0-33.184-56.096 38.112 38.112 0 0 0-23.296-7.904H132.256zM891.744 695.456H132.256V38.39999999999998h156.096l269.184 348.32a64 64 0 0 0 101.312 0l232.864-301.408V695.456z m-283.52-347.84L369.216 38.39999999999998h477.856l-238.912 309.184z m-318.08 207.04a85.344 85.344 0 1 0 0-170.656 85.344 85.344 0 0 0 0 170.656z"  horiz-adv-x="1024" />

    
    <glyph glyph-name="publish" unicode="&#58913;" d="M818.5 118.89999999999998L458.1 229.79999999999995c-1.6 0.5-2.2 2.5-1.1 3.7l339.4 391.6c1.8 2.1 12.9 19 10.8 17.1L348.5 235.89999999999998c-3.5-3.1-8.5-4-12.8-2.2L63 342.70000000000005 958.4 818.4 818.5 118.89999999999998zM494.7 21l-30 185.9 132.9-44L494.7 21z"  horiz-adv-x="1024" />

    
    <glyph glyph-name="generate-code" unicode="&#58914;" d="M185.2 278.70000000000005l125.9-125.9c3.4-3.4 8.6-3.4 12 0s3.4 8.6 0 12L202.9 284.4 323.1 404c3.4 3.4 3.4 8.6 0 12s-8.6 3.4-12 0L184.6 290.70000000000005c-1.7-1.7-2.3-4-2.3-6.3s1.2-4.6 2.9-5.7zM361.9 77.5c9.8-5.6 22.4-1.4 28 8.4l237.6 448.7c4.2 11.2 0 22.4-9.8 28s-22.4 1.4-28-8.4L352.1 105.5c-4.2-11.2 0-22.4 9.8-28zM693.4 242.60000000000002c3.7-3.7 9.3-3.7 13 0l136.1 136.1c1.9 1.9 2.5 4.3 2.5 6.8s-0.6 5-2.5 6.8L706.4 528.5c-3.7 3.7-9.3 3.7-13 0s-3.7-9.3 0-13l130-130-130-130c-3.7-3.6-3.7-9.2 0-12.9zM917.4 772.8H106.2c-23.1 0-42-18.2-42-41.3v-693c0-22.4 18.9-41.3 42-41.3h811.2c23.1 0 42 18.2 40 38.3v693c1.9 25.4-16.9 44.3-40 44.3z m-30.8-723.3l-757.8-6c-9.3 0-16.8 7.5-16.8 16.8V590.2c0 10.2 8.3 18.4 18.4 18.4h757.8c10.9 0 19.8-8.9 19.8-19.8l3-514.9c0-13.5-10.9-24.4-24.4-24.4z m-486.7 682c23.1 0 42-18.9 42-41.3S423 649 399.9 649s-42 18.2-42 41.3c0 22.3 18.9 41.2 42 41.2z m-125.9 0c23.1 0 42-18.9 42-41.3S297.1 649 274 649s-42 18.2-42 41.3c0 22.3 18.9 41.2 42 41.2z m-125.9 0c23.1 0 42-18.9 42-41.3s-18.9-41.3-42-41.3-42 18.2-42 41.3c0.1 22.4 19 41.3 42 41.3z"  horiz-adv-x="1024" />

    
    <glyph glyph-name="code" unicode="&#58915;" d="M618.4 752.9L440.6 7.7999999999999545c-1.3-5-3.8-8.7-7.6-11.2s-7.6-3-11.5-1.4L401 0c-4.2 1.5-7.4 4.5-9.6 8.9s-2.5 9.1-1.2 14.1l182.9 741c1.3 5 3.8 8.7 7.6 11.2s7.6 3 11.5 1.4l15.4-0.8c4.2-1.5 7.4-4.5 9.6-8.9 2.2-4.4 2.5-9 1.2-14zM955.4 370.20000000000005L727 102.70000000000005c-3.3-3.8-7-5.8-11.3-5.8s-8 1.9-11.3 5.8l-11.4 8.7c-3.3 3.8-4.9 8.2-4.9 13.2s1.6 9.4 4.9 13.2l208.6 245.6L695 629c-3.3 3.8-4.9 8.2-4.9 13.2 0 4.7 1.4 8.9 4.4 12.6 0.3 0.4 0.7 0.8 1.1 1.2l10.9 9.2c3.3 3.8 9 6.8 13.3 6.8s9-3.9 12.3-7.8l223.4-267.5c3.3-3.8 4.9-8.2 4.9-13.2s-1.7-9.4-5-13.3zM81 370.20000000000005c-3.3 3.9-5 8.3-5 13.2 0 5 1.6 9.4 4.9 13.2l223.4 267.5c3.3 3.9 8 7.8 12.3 7.8s10-3 13.3-6.8l10.9-9.2c0.4-0.4 0.8-0.7 1.1-1.2 3-3.7 4.4-7.9 4.4-12.6 0-5-1.6-9.4-4.9-13.2L134.8 383.4l208.6-245.6c3.3-3.8 4.9-8.2 4.9-13.2s-1.6-9.4-4.9-13.2l-11.4-8.7c-3.3-3.9-7-5.8-11.3-5.8s-8 2-11.3 5.8L81 370.20000000000005z"  horiz-adv-x="1024" />

    
    <glyph glyph-name="textarea" unicode="&#58916;" d="M896.4 722.9H128.9c-35.2 0-49-13.8-49-49v-575.6c0-35.2 13.8-49 49-49h767.5c35.2 0 49 13.8 49 49V673.9c0 35.2-13.8 49-49 49z m0-592.6c0-16-12.8-32-32-32H160.9c-19.2 0-32 12.8-32 32V641.9c0 16 12.8 32 32 32h703.5c19.2 0 32-12.8 32-32v-511.6zM710.2 129.29999999999995h141.5c8.1 0 14.7 6.6 14.7 14.7V285.6c0 1.3-1.6 2-2.6 1.1L709.1 131.89999999999998c-1-1-0.3-2.6 1.1-2.6zM207.2 301.70000000000005h-13.5c-10 0-18.2 8.2-18.2 18.2V604.2c0 10.2 8.4 18.6 18.6 18.6h12.8c10.2 0 18.6-8.4 18.6-18.6v-284.3c-0.1-10-8.3-18.2-18.3-18.2z"  horiz-adv-x="1024" />

    
    <glyph glyph-name="table" unicode="&#58917;" d="M66.4 774.8c-1.9-1.7-3-4.2-3-6.8v-763.1c0-6.9 5.6-12.5 12.5-12.5h872c6.9 0 12.5 5.6 12.5 12.5V764.6c0 6.9-5.6 12.5-12.5 12.5H72.6c-2.3 0.1-4.5-0.8-6.2-2.3z m326.3-497.5v158c0 6.9 5.6 12.5 12.5 12.5h206.2c6.9 0 12.5-5.6 12.5-12.5l1-157.1c0-6.9-5.6-12.5-12.5-12.5h-208c-2.9 0-5.6 1-7.7 2.9-2.5 2.1-4 5.3-4 8.7zM624 206v-153.1c0-6.9-5.6-12.5-12.5-12.5H404.3c-6.9 0-12.5 5.6-12.5 12.5V204c0 6.9 5.6 12.5 12.5 12.5l208.2 1c3.5 0 6.9-1.6 9-4.4 1.6-2 2.5-4.5 2.5-7.1z m0 458.8v-156.5c0-6.9-5.6-12.5-12.5-12.5H405.2c-6.9 0-12.5 5.6-12.5 12.5V662.5c0 6.9 5.6 12.5 12.5 12.5h210.7c8.3 0 8.1-9.3 8.1-10.2z m-285.2 6.1c3.1-2.9 4.9-7 4.9-11.2v-150.3c0-6.9-5.6-12.5-12.5-12.5H124.9c-6.9 0-12.5 5.6-12.5 12.5V662.5c0 6.9 5.6 12.5 12.5 12.5h203.3c4 0 7.7-1.4 10.6-4.1zM125 447.8h206.2c6.9 0 12.5-5.6 12.5-12.5v-157.1c0-6.9-5.6-12.5-12.5-12.5H124.9c-6.9 0-12.5 5.6-12.5 12.5v157c0 3.1 1.1 6.1 3.2 8.4 2.4 2.6 5.8 4.2 9.4 4.2z m556.8 0h218c6.9 0 12.5-5.6 12.5-12.5v-157.1c0-6.9-5.6-12.5-12.5-12.5H684.6c-6.9 0-12.5 5.6-12.5 12.5V438c0 2.9 1.3 5.7 3.6 7.6 1.7 1.4 3.9 2.2 6.1 2.2z m-4.3 50.8c-2.4 2.1-3.8 6.2-3.8 9.5l0.4 154.4c0 6.9 5.6 12.5 12.5 12.5h213.2c6.9 0 12.5-5.6 12.5-12.5v-154.1c0-6.9-5.6-12.5-12.5-12.5H684.9c-2.7-0.1-5.4 0.9-7.4 2.7zM126.6 216.5h204.5c6.9 0 12.5-5.6 12.5-12.5v-150.1c0-6.9-5.6-12.5-12.5-12.5H123.9c-6.9 0-12.5 5.6-12.5 12.5V201.29999999999995c0 3.9 1.5 7.6 4.1 10.4 2.9 3.1 6.9 4.8 11.1 4.8zM673 55.39999999999998V204c0 6.9 5.6 12.5 12.5 12.5h214.2c6.9 0 12.5-5.6 12.5-12.5v-151.1c0-6.9-5.6-12.5-12.5-12.5H688c-3.9 0-7.7 1.5-10.5 4.2-2.8 2.8-4.5 6.7-4.5 10.8z"  horiz-adv-x="1024" />

    
    <glyph glyph-name="cascade-selector" unicode="&#58918;" d="M128.2 405.6V694.7c0 16.1 12.8 32.1 32 32.1h383.9c17.7 0 32-14.4 32-32.1v-289.1c0-16.1-5.8-32.1-25-32.1h-28.7c-5.7 0-10.3-4.6-10.3-10.3v-38.7c0-5.7 4.6-10.3 10.3-10.3h53.7c35.2 0 59 23.9 59 59.2V726.8c0 35.3-23.8 57.2-59 57.2H128.2c-35.2 0-59-21.9-59-57.2v-353.3c0-35.3 23.8-59.2 59-59.2h181.7c5.7 0 10.3 4.6 10.3 10.3v38.6c0 5.7-4.6 10.3-10.3 10.3H160.2c-16 0-32 12.8-32 32.1zM894.4 452.8H710.1c-5.8 0-10.5-4.7-10.5-10.5v-38.4c0-5.7 4.7-10.4 10.5-10.4h151.8c17.9 0 32.5-14.4 32.5-32.1v-289.1c0-16.1-13-32.1-32.5-32.1H472.4c-17.9 0-32.5 14.4-32.5 32.1V363.5c0 14.1 1 25.1 16.5 28.4 3.2 0.7 6.5 0.8 9.7 0.5l27.3 0.2c5.8 0 10.5 4.6 10.5 10.4l1 33.5c0 5.7-4.7 10.4-10.5 10.4H440c-35.7 0-59.9-17.9-59.9-53.2v-353.3c0-35.3 24.2-59.2 59.9-59.2h454.5c35.7 0 59.9 23.9 59.9 59.2V393.6c-0.1 35.3-24.3 59.2-60 59.2z"  horiz-adv-x="1024" />

    
    <glyph glyph-name="json" unicode="&#58919;" d="M216.4 788.9h50.2c5.7 0 10.4-4.7 10.4-10.4V740c0-5.7-4.7-10.4-10.4-10.4h-45.8c-5.7 0-13.4-4.6-13.4-10.4l-1-246.6c-1.3-35.2-25.1-90-58.6-91.4 23.2 1 59.6-39.5 59.6-89.4l-1-242.4c0-5.8 4.7-19.6 10.6-19.6h49.3c5.9 0 10.8-6.8 10.8-12.8v-30.9c0-5.9-4.8-10.8-10.8-10.8h-49.8c-32.4 12.2-60.6 40.7-60.6 90.4v181c0 49.9-27.1 90.4-60.6 90.4H77.1c-6.8 0-12.2 5.5-12.2 12.2v65.9c0 6.8 5.5 12.2 12.2 12.2h18.1c33.5 0 60.6 40.5 60.6 90.4V698.6c0 49.9 27.1 90.3 60.6 90.3M808.6 788.9c33.5 0 60.6-40.4 60.6-90.3v-180.8c0-49.9 27.1-90.4 60.6-90.4h18.1c6.7 0 12.2-5.4 12.2-12.2v-65.9c0-6.7-5.4-12.2-12.2-12.2h-18.2c-33.5 0-60.6-40.5-60.6-90.4v-181c0-49.7-28.2-78.2-60.6-90.4h-49.8c-6 0-10.8 4.9-10.8 10.8V17c0 6 4.9 12.8 10.8 12.8H808c5.9 0 10.6 13.8 10.6 19.6l-1 242.4c0 49.9 36.4 90.4 59.6 89.4-33.5 1.4-57.3 56.2-58.6 91.4l-1 246.6c0 5.8-7.7 10.4-13.4 10.4h-45.8c-5.7 0-10.4 4.7-10.4 10.4v38.5c0 5.7 4.7 10.4 10.4 10.4h50.2M508.4 228.20000000000005c16.8 0 30.4-13.6 30.4-30.4 0-16.8-13.6-30.4-30.4-30.4-16.8 0-30.4 13.6-30.4 30.4 0 16.8 13.6 30.4 30.4 30.4M386.8 228.20000000000005c16.8 0 30.4-13.6 30.4-30.4 0-16.8-13.6-30.4-30.4-30.4-16.8 0-30.4 13.6-30.4 30.4 0 16.8 13.6 30.4 30.4 30.4M630 228.20000000000005c16.8 0 30.4-13.6 30.4-30.4 0-16.8-13.6-30.4-30.4-30.4-16.8 0-30.4 13.6-30.4 30.4 0 16.8 13.6 30.4 30.4 30.4z"  horiz-adv-x="1024" />

    
    <glyph glyph-name="custom-data" unicode="&#58921;" d="M830.2 87.20000000000005c-25.2 0.2-26.3-15.3-29.7-33.1-7.5-38.7-32.5-54.3-54.6-54.4H149.2c-4.7 0-8.5 3.8-8.5 8.5V759.3c0 7.3 5.9 13.2 13.2 13.2h397.9c6.1 0 21-5.4 25.4-9.8l144.7-151.8c12.8-12.8 30.7-19.2 44.2-5.7 11.3 11.3 4.9 27.7-7.9 40.6L606.4 805.6c-6.3 6.3-22.6 15.8-31.4 15.8H117.1c-12.8 0-24.2-11.4-24.2-24.2v-808.8c0-20 18.1-37.5 37.5-37.5h615.4c66.4 0 101.5 48.9 104.4 103.4 1 18.1-1.8 32.9-20 32.9zM566.7 190.29999999999995H215.5c-15.4 0-23.9-9-23.9-20.2 0-11.1 8.5-20.2 23.9-20.2h351.2c15.4 0 23.9 9 23.9 20.2s-8.5 20.2-23.9 20.2zM566.7 334.20000000000005H215.5c-15.4 0-23.9-9-23.9-20.2 0-11.1 8.5-20.2 23.9-20.2h351.2c15.4 0 23.9 9 23.9 20.2s-8.5 20.2-23.9 20.2zM566.7 478.2H215.5c-15.4 0-23.9-9-23.9-20.2 0-11.1 8.5-20.2 23.9-20.2h351.2c15.4 0 23.9 9 23.9 20.2 0 11.1-8.5 20.2-23.9 20.2zM566.7 622.1H215.5c-15.4 0-23.9-9-23.9-20.2 0-11.1 8.5-20.2 23.9-20.2h351.2c15.4 0 23.9 9 23.9 20.2 0 11.1-8.5 20.2-23.9 20.2zM882 585.4l-45.1 9.1c-16.4 3.3-33.1 0.7-46.9-7.4-14-8.2-23.4-21-26.4-36.1l-68.4-336.9 42.5-129c2.9-8.8 11.2-14.5 20.1-14.5 2.1 0 4.3 0.3 6.4 1 3.7 1.2 6.8 3.3 9.3 6.2l86.9 99.2 0.3-0.1 4 4.6 0.1 0.4 0.4 0.4 0.6 3.1-0.3 0.1 67.2 331.1c6.1 31.1-16.5 61.9-50.7 68.8z m-115.9-452l-22.2 67.4 69-14-46.8-53.4z m60.9 93.5L747.6 243l42.2 207.4 79.4-16.1L827 226.89999999999998zM887.7 526l-9.5-46.8-79.4 16.1 9.5 46.9c0.7 3.6 2.9 6.7 6.2 8.9 4 2.6 9.1 3.5 14 2.5l45.1-9.1c5-1 9.4-3.9 12-7.8 2.1-3.5 2.8-7.2 2.1-10.7z"  horiz-adv-x="1024" />

    
    <glyph glyph-name="switch" unicode="&#58922;" d="M63.3 384.2c0-117 94.9-211.9 211.9-211.9 4.8 0 9.6 0.2 14.4 0.5H733c4.8-0.3 9.5-0.5 14.4-0.5 117 0 211.9 94.9 211.9 211.9S864.5 596 747.4 596c-4.8 0-9.6-0.2-14.4-0.5H289.6c-4.8 0.3-9.6 0.5-14.4 0.5-117 0-211.9-94.8-211.9-211.8z m485.8 0c0 100.2 81.2 181.4 181.4 181.4s181.4-81.2 181.4-181.4-81.2-181.4-181.4-181.4S549.1 284 549.1 384.2z"  horiz-adv-x="1024" />

    
    <glyph glyph-name="input" unicode="&#58923;" d="M899.1 752.6H145.7c-44.8 0-81.5-16.7-81.5-61.5v-167.3c0-8.4 6.8-15.2 15.2-15.2h31.1c8.4 0 15.2 6.8 15.2 15.2V677.2c0 8.1 6.6 14.7 14.7 14.7h746.8c6.5 0 11.9-5.3 11.9-11.9v-582c0-9.8-7.9-17.7-17.7-17.7h-742c-7.5 0-13.6 6.1-13.6 13.6V250.29999999999995c0 7.6-6.2 13.8-13.8 13.8H78c-7.6 0-13.8-6.2-13.8-13.8v-169.6c0-44.8 36.7-60.7 81.5-60.7h733.4c44.8 0 81.5 36.7 81.5 81.5V671.1c-0.1 45-16.5 81.5-61.5 81.5zM476.3 247.39999999999998l150.2 128.8c4.3 3.7 4.4 10.4 0.1 14.2l-149 133.4c-2.3 2.1-6 0.4-6-2.7V417H77.1c-7.1 0-12.9-5.8-12.9-12.9v-35.8c0-7.1 5.8-12.9 12.9-12.9h394.6v-106.3c-0.1-2.2 3.2-3 4.6-1.7z"  horiz-adv-x="1024" />

    
    <glyph glyph-name="custom-field" unicode="&#58924;" d="M64.7 798.6V-29c0-19.1 15.5-34.5 34.5-34.5h826.6c19.1 0 34.5 15.5 34.5 34.5V798.6c0 19.1-15.5 34.5-34.5 34.5H99.2c-19.1 0-34.5-15.4-34.5-34.5z m59.1-768.5V739.5c0 19.1 15.5 34.5 34.5 34.5h708.4c19.1 0 34.5-15.5 34.5-34.5v-709.4c0-19.1-15.5-34.5-34.5-34.5H158.3c-19 0-34.5 15.4-34.5 34.5zM229 80.60000000000002c0-18.1 14.6-32.7 32.7-32.7h500.1c18.1 0 32.7 14.6 32.7 32.7s-14.6 32.7-32.7 32.7H261.7c-18.1 0-32.7-14.6-32.7-32.7zM467.4 275.1L344.8 397.7l210.8 210.8 122.6-122.6-210.8-210.8zM234 163.70000000000005l47.2 166.8 119.5-119.6zM567.4 615.1l81 81c22.6 22.6 58.5 23.1 80 1l39.5-39.5c21.5-21.5 21-57.5-1-80l-81-81"  horiz-adv-x="1024" />

    
    <glyph glyph-name="rich-text-box" unicode="&#58925;" d="M224.7 575.3h95.6v-159.4c0-17.6 14.3-31.9 31.9-31.9 17.6 0 31.9 14.3 31.9 31.9V575.3h95.6c17.6 0 31.9 14.3 31.9 31.9 0 17.6-14.3 31.9-31.9 31.9h-255c-17.6 0-31.9-14.3-31.9-31.9 0.1-17.6 14.3-31.9 31.9-31.9zM607.3 575.3h191.3c17.6 0 31.9 14.3 31.9 31.9 0 17.6-14.3 31.9-31.9 31.9H607.3c-17.6 0-31.9-14.3-31.9-31.9s14.3-31.9 31.9-31.9zM798.6 447.8H607.3c-17.6 0-31.9-14.3-31.9-31.9 0-17.6 14.3-31.9 31.9-31.9h191.3c17.6 0 31.9 14.3 31.9 31.9 0 17.6-14.3 31.9-31.9 31.9zM798.6 320.29999999999995H224.7c-17.6 0-31.9-14.3-31.9-31.9 0-17.6 14.3-31.9 31.9-31.9h573.9c17.6 0 31.9 14.3 31.9 31.9 0 17.6-14.3 31.9-31.9 31.9zM798.6 192.70000000000005H224.7c-17.6 0-31.9-14.3-31.9-31.9s14.3-31.9 31.9-31.9h573.9c17.6 0 31.9 14.3 31.9 31.9s-14.3 31.9-31.9 31.9zM920.1-63.299999999999955H104.2c-21.7 0-39.3 17.6-39.3 39.3V791.8c0 21.7 17.6 39.3 39.3 39.3h815.9c21.7 0 39.3-17.6 39.3-39.3v-815.9c-0.1-21.6-17.7-39.2-39.3-39.2zM121-7.2000000000000455h782.2V775H121v-782.2z"  horiz-adv-x="1024" />

    
    <glyph glyph-name="menu" unicode="&#58926;" d="M444.6 831.4H107.2C83.9 831.4 65 812.5 65 789.2v-337.5c0-23.3 18.9-42.2 42.2-42.2h337.5c23.3 0 42.2 18.9 42.2 42.2V789.2c-0.1 23.3-19 42.2-42.3 42.2zM917.2 831.4h-337c-23.3 0-42.1-18.9-42.1-42.1v-337c0-23.3 18.9-42.1 42.1-42.1h337c23.3 0 42.1 18.9 42.1 42.1v337c0 23.2-18.8 42.1-42.1 42.1zM444.6 358.79999999999995H107.2c-23.3 0-42.2-18.9-42.2-42.2v-337.4c0-23.3 18.9-42.2 42.2-42.2h337.4c23.3 0 42.2 18.9 42.2 42.2V316.6c0 23.3-18.9 42.2-42.2 42.2zM917.2 357.9H580.6c-23.2 0-42.1-18.8-42.1-42.1v-336.7c0-23.2 18.8-42.1 42.1-42.1h336.7c23.2 0 42.1 18.8 42.1 42.1V315.79999999999995c-0.1 23.3-18.9 42.1-42.2 42.1z"  horiz-adv-x="1024" />

    
    <glyph glyph-name="grid" unicode="&#58928;" d="M848.3 643.9H708.9c-5.5 0-9.9-4.4-9.9-9.9v-499.7c0-6 4.8-10.8 10.8-10.8h151.7c27 0 24.2 7.7 24.2 28.8V606.8c0 37.2-2.6 37.2-37.4 37.1z m-240.1 0.1H410.3c-5.5 0-10-4.5-10-10v-501.2c0-5.1 4.1-9.2 9.2-9.2h203.9c6 0 11 4.9 11 11V631.8c-0.1 9.1-1.6 12.2-16.2 12.2zM325.6 142.39999999999998V632.6c0 6.3-5.1 11.4-11.4 11.4H149.8c-6 0-10.9-4.9-10.9-10.9v-496.4c0-7.2 5.9-13.2 13.2-13.2h151.6c5.8 0 13.5-1.9 19.1 2.7 3.2 2.6 2.8 7.8 2.8 16.2zM176.2 718.3h672.1c30.9 0 66.5-1.7 88.4-23.4 21.9-21.8 23.6-57.3 23.6-88.1v-446.1c0-30.8-1.7-66.3-23.6-88.1-21.9-21.8-57.5-23.4-88.4-23.4H176.2c-30.9 0-64.7 0.6-86.6 22.3-21.9 21.8-25.4 58.4-25.4 89.2V606.8c0 100.3 37.4 111.5 112 111.5z"  horiz-adv-x="1024" />

    
    <glyph glyph-name="font" unicode="&#58929;" d="M952 82.10000000000002c-30.4 43.3-28.1 129.6-17 174.3 8.3 33.3 7.1 88.6-23.5 134.5-25.4 38.2-66.7 62.7-119.4 70.8-51.2 7.9-98.9-7.2-138-43.8-13.2-12.4-32.3-33.8-48-65.3l-0.2-0.5c-6.9-13.8-4.4-30 6.3-40.4 8.4-8.3 19.8-11.9 31-10.1 11.1 1.9 20.7 9 25.7 19l0.3 0.6c12.3 24.6 47.7 80.9 112.2 70.9 33.1-5.1 57.1-18.7 71.5-40.2 8.3-12.4 13.4-27.1 15.3-43.6-40.5 9.6-90.2 10.1-133.1 1.3-27.9-5.7-52.3-15.1-72.5-27.9-24.9-15.8-42.8-36.3-53.2-61.1-21-49.9-11.2-110.7 24.5-151.3 26-29.5 61.4-45.2 102.3-45.2 15.3 0 31.2 2.3 47.2 6.7 35 9.7 65.5 28.7 88.8 55.1 6.1-17.7 14-33.3 23.6-46.4 6.6-9.1 17.3-14.5 28.5-14.5 12.9 0 24.8 7.1 31 18.5 6.4 11.7 5.1 26.5-3.3 38.6z m-95.6 152.6c0-75.4-29.1-118.6-91.8-136-32.5-9-60.1-2.9-77.8 17.1-18 20.4-23.1 52.3-12.5 77.4 16.2 38.5 77.5 52.2 125.1 52.2 16 0 42.7-4.5 53.4-6.5 2.1-0.4 3.6-2.1 3.6-4.2zM371.2 716.6c-2.7 11.7-11 21-22.2 25.1-3.9 1.4-8 2.1-12.2 2.1-4.3 0-8.4-0.7-12.3-2.1-11.2-4.1-19.4-13.4-22.2-25.1L67 71.39999999999998c-6.4-17.5 1.2-37.3 17.2-45.1 4.8-2.3 10.1-3.5 15.4-3.5 4.5 0 9 0.9 13.2 2.6 9.2 3.7 16.5 11.2 19.9 20.5l76.5 209.6c1.2 3.3 4.4 5.5 7.9 5.5h240.5c2.9 0 5.6-1.9 6.6-4.6L541 45.89999999999998c3.4-9.3 10.6-16.8 19.9-20.5 9.2-3.7 19.6-3.4 28.6 0.9 16 7.8 23.6 27.6 17.2 45.1L371.2 716.6zM437 333.79999999999995c0.1-0.2 0-0.4-0.1-0.6-0.1-0.2-0.3-0.3-0.6-0.3l-189.5-0.3 92.6 286.2 97.6-285z m-190.3-2c-0.1 0-0.1 0 0 0z"  horiz-adv-x="1024" />

    
    <glyph glyph-name="number" unicode="&#58930;" d="M269.1 181.60000000000002H87c-13.1 0-23.6-10.6-23.6-23.6 0-13.1 10.6-23.6 23.6-23.6h182.8c14.6 0 22.6 14.2 22.6 22.7v0.4c0 15-12.1 24.1-23.3 24.1zM654.6 181.60000000000002H368.1c-15.1 0-27.4-10.6-27.4-23.6 0-13.1 12.3-23.6 27.4-23.6h287.3c16.9 0 26.2 14.2 26.2 22.7v0.4c0 15-14 24.1-27 24.1zM935.7 181.60000000000002H753.6c-13.1 0-23.6-10.6-23.6-23.6 0-13.1 10.6-23.6 23.6-23.6h182.8c14.6 0 22.6 14.2 22.6 22.7v0.4c0 15-12.1 24.1-23.3 24.1zM96.7 474.5c42.5 18.5 77.1 39.2 103.7 62.3 3.5 3.1 9.1 0.5 9.1-4.2v-283.3h51.2c2.3 0 4.2 1.9 4.2 4.2V626c0 3.1-2.5 5.7-5.7 5.7h-33.3c-2.1 0-4-1.1-5-3-22.4-41.5-64.5-76.6-126.3-105.3-0.9-0.4-1.5-1.3-1.5-2.3v-44.3c0-1.8 1.9-3.1 3.6-2.3zM350.3 251.29999999999995h243.5c8.1 0 14.7 6.6 14.7 14.7v16.5c0 6.2-5.1 11.3-11.3 11.3l-178.4 5c-1.2 0-1.9 1.4-1.3 2.4l1.6 2.4c23.4 37 51.9 61.6 98.8 93.6 66.5 43.1 96.7 86.8 90.5 131.2-5 67.7-45 102.8-120.1 105.3-70.6 0-115.9-30.9-135.9-92.6-1.6-4.9 1.2-10.2 6.1-11.8l33.4-10.8c5-1.6 10.5 1.2 11.9 6.3 12.2 41.8 37.2 62.7 75.1 62.7 45.5-1.3 69-22.8 70.2-64.7 4.9-27.1-24-62.8-86.8-107.2-52.5-40.2-91.7-84.1-117.5-131.6-0.5-0.9-0.7-1.9-0.7-2.9v-23.9c0.2-3.2 2.9-5.9 6.2-5.9zM791.4 244c86.2 2.5 124.2 38.8 127.9 109-3.6 50.9-24.6 82.1-77.1 93.6-0.7 0.2-0.8 1.2-0.1 1.4 47.5 13.9 63.8 43.1 65.1 87.9-5 62.8-37 95.4-112.1 97.9-71.1 0-114.9-31.1-131.9-93.3-0.7-2.4 0.8-4.9 3.3-5.5l46.3-10.8c2.5-0.6 5 1 5.5 3.6 8.3 42.5 32.6 63.7 73 63.7 41.9-1.3 63.5-21.6 64.7-61-1.2-43.1-30.2-64.7-86.8-64.7h-23.9c-2.1 0-3.8-1.7-3.8-3.8v-36.8c0-2.1 1.7-3.8 3.8-3.8h31.3c60.3 0 90.5-21.6 90.5-64.7-1.2-46.8-26.5-70.8-75.8-72.1-42.7 0-68.9 21.7-78.4 65.2-0.6 2.8-3.3 4.5-6.1 3.9l-48.1-10.9c-1.9-3.4-2.5-7.5-1.4-11.3 17.3-62.2 61.2-88.7 134.1-87.5z"  horiz-adv-x="1024" />

    
    <glyph glyph-name="rich-text" unicode="&#58931;" d="M612.6 812.1H948c6.2 0 11.3-5 11.3-11.3V757c0-6.2-5-11.3-11.3-11.3H612.6c-6.2 0-11.3 5-11.3 11.3V800.8c0 6.3 5 11.3 11.3 11.3zM601.3 559.6v43.9c0 6.2 5 11.3 11.3 11.3H948c6.2 0 11.3-5 11.3-11.3v-43.9c0-6.2-5-11.3-11.3-11.3H612.6c-6.3 0-11.3 5.1-11.3 11.3zM601.3 362.20000000000005v43.9c0 6.2 5 11.3 11.3 11.3H948c6.2 0 11.3-5 11.3-11.3v-43.9c0-6.2-5-11.3-11.3-11.3H612.6c-6.3 0-11.3 5.1-11.3 11.3zM64 164.79999999999995v43.9c0 6.2 5 11.3 11.3 11.3H948c6.2 0 11.3-5 11.3-11.3v-43.9c0-6.2-5-11.3-11.3-11.3H75.3c-6.3 0-11.3 5.1-11.3 11.3zM64-32.60000000000002v43.9c0 6.2 5 11.3 11.3 11.3H948c6.2 0 11.3-5 11.3-11.3v-43.9c0-6.2-5-11.3-11.3-11.3H75.3c-6.3 0-11.3 5-11.3 11.3zM64.2 740.7V801.4c0 6.2 5 11.3 11.3 11.3h425c6.2 0 11.3-5 11.3-11.3v-61.1c0-6.2-5-11.3-11.3-11.3l-425 0.3c-6.3 0.1-11.3 5.1-11.3 11.4zM243.2 731h89.5v-427.5c0-11.3-9.2-20.5-20.5-20.5h-48.6c-11.3 0-20.5 9.2-20.5 20.5V731z"  horiz-adv-x="1024" />

    
    <glyph glyph-name="dropdown-selector" unicode="&#58932;" d="M945.4 742H72.9c-4.8 0-8.7-3.9-8.7-8.7v-429.1c0-5.7 4.6-10.3 10.3-10.3h875c6 0 10.8 4.8 10.8 10.8V727.1c0 7.9 0 14.9-14.9 14.9z m-48.2-378.5c0-2.5-2-4.5-4.5-4.5H134.4c-2.9 0-5.2 2.3-5.2 5.2V670.1c0 2.7 2.2 4.9 4.9 4.9h758.2c2.7 0 4.9-2.2 4.9-4.9v-306.6zM789.6 581.8l-90.3-92.4c-1.8-1.9-4.9-1.9-6.7 0l-90.3 92.4c-11.7 11.6-30.6 11.6-42.2-0.1-11.4-11.5-11.6-30-0.5-41.7l115.1-117.6c11.5-11.8 30.3-12 42.1-0.6l0.6 0.6 115 117.6c11.5 11.8 11.3 30.7-0.5 42.2-11.8 11.6-30.7 11.4-42.3-0.4zM867.9 258.1c-26.2 0-29.4 0-30.7-7.1-0.4-2-0.5-3.9-0.5-5.9v-147.6c0-6.4-2.2-8.5-8.5-8.5H193.1c-2.9 0-5.3 2.4-5.3 5.3V245.5c0 10.6-0.5 12.6-31.2 12.6-32.8 0-32.8 0-32.8-11v-204.3c0-9.9 8-17.9 17.9-17.9h740.2c10.5 0 19 8.5 19 19V248.10000000000002c0 10 0 10-33 10zM789.6 581.8l-90.3-92.4c-1.8-1.9-4.9-1.9-6.7 0l-90.3 92.4c-11.7 11.6-30.6 11.6-42.2-0.1-11.4-11.5-11.6-30-0.5-41.7l115.1-117.6c11.5-11.8 30.3-12 42.1-0.6l0.6 0.6 115 117.6c11.5 11.8 11.3 30.7-0.5 42.2-11.8 11.6-30.7 11.4-42.3-0.4z"  horiz-adv-x="1024" />

    


  </font>
</defs>
</svg>
